<svg xmlns="http://www.w3.org/2000/svg" viewBox="0 0 500.442 500.442" style="enable-background:new 0 0 500.442 500.442" xml:space="preserve"><path d="M0 118.068v264.307h500.442V118.068H0zm156.216 156.97c3.387 3.904 6.105 7.075 8.089 9.448l-21.786 14.366-19.069-31.515c-5.738 10.332-12.425 21.161-19.91 32.766l-21.506-16.674a397.884 397.884 0 0 1 21.506-22.002c2.934-2.783 4.832-4.681 5.544-5.35-2.33-.453-9.146-1.985-20.406-4.789-8.111-2.071-13.46-3.43-16.027-4.444l8.693-25.108c12.446 5.048 23.491 10.721 33.111 16.717-2.222-15.574-3.387-28.258-3.387-38.051h25.065c0 6.924-1.294 19.673-3.84 38.202 1.941-.755 5.954-2.567 12.231-5.544 8.52-3.883 16.415-7.183 23.642-9.923l7.571 25.907c-10.548 2.33-22.779 4.681-36.67 6.967l17.149 19.027zm126.016.065c3.451 3.861 6.148 7.01 8.132 9.448l-21.786 14.366-19.09-31.536c-5.803 10.332-12.511 21.118-19.953 32.744l-21.42-16.631c6.881-7.679 13.999-14.927 21.463-22.024 2.912-2.783 4.832-4.638 5.565-5.393-2.373-.431-9.168-1.984-20.406-4.789-8.154-2.049-13.482-3.43-16.006-4.444l8.65-25.065c12.446 5.069 23.469 10.721 33.111 16.717-2.265-15.553-3.343-28.236-3.343-38.029h25.022c0 6.903-1.273 19.651-3.818 38.202 1.877-.777 5.954-2.588 12.231-5.544 8.542-3.883 16.415-7.205 23.62-9.966l7.55 25.928c-10.527 2.33-22.8 4.681-36.606 6.967l17.084 19.049zm126.06 0c3.365 3.861 6.105 7.01 8.089 9.448l-21.786 14.366-19.047-31.536c-5.824 10.332-12.425 21.118-19.975 32.744l-21.441-16.631c6.816-7.679 13.935-14.927 21.441-22.024 2.955-2.739 4.897-4.638 5.608-5.35-2.351-.453-9.232-1.985-20.428-4.81-8.089-2.071-13.439-3.451-15.962-4.465l8.671-25.087c12.425 5.069 23.469 10.699 33.068 16.717-2.243-15.553-3.322-28.236-3.322-38.029h25.022c0 6.903-1.337 19.651-3.883 38.202 1.941-.777 5.932-2.61 12.209-5.544 8.542-3.883 16.437-7.205 23.642-9.966l7.593 25.928c-10.483 2.308-22.843 4.681-36.649 6.946l17.15 19.091z"/><g/><g/><g/><g/><g/><g/><g/><g/><g/><g/><g/><g/><g/><g/><g/></svg>