<svg xmlns="http://www.w3.org/2000/svg" viewBox="0 0 490 490" style="enable-background:new 0 0 490 490" xml:space="preserve"><path d="M338.564 35.65c-11.882-11.913-31.328-11.913-43.195 0l-6.324 6.339c-11.882 11.913-11.882 31.405 0 43.302l.505.505c-9.509 6.14-23.917 15.527-39.811 26.245-14.546-17.93-32.354-34.529-40.638-41.909 2.113-9.846-.582-20.533-8.161-28.143l-6.324-6.339c-11.882-11.913-31.328-11.913-43.195 0L8.912 178.511c-11.882 11.913-11.882 31.405 0 43.303l6.324 6.339c9.233 9.248 22.983 11.224 34.253 6.094 5.91 8.314 20.916 29.093 39.964 53.179-10.489 10.764-27.271 31.068-27.975 51.647-.337 10.167 3.231 19.339 10.32 26.49 21.957 22.187 87.6 87.815 87.6 87.815l1.96 1.654c.873.612 12.005 8.253 30.042 8.253 14.868 0 34.437-5.328 56.762-23.917 4.655 3.384 7.671 5.497 8.33 5.941 2.205 1.363 17.67 10.489 34.85 10.489 5.512 0 11.208-.949 16.705-3.399 7.334-3.277 16.43-10.274 21.529-25.204 12.801-4.593 28.434-14.883 34.973-33.794 14.715-3.583 30.364-13.827 35.815-33.671 14.102-1.945 30.302-9.738 36.151-30.578 4.364-15.618 0-29.032-6.844-39.337 10.244-11.162 23.55-29.797 26.168-52.995 6.906-.597 13.658-3.399 18.926-8.682l6.324-6.339c11.882-11.913 11.882-31.405 0-43.303L338.564 35.65zm86.314 185.812c3.399 19.37-7.962 36.596-16.813 46.564l-82.302-77.356-10.213 7.273c-20.824 14.792-47.605 1.807-47.819 1.715l-8.835-4.456-7.717 6.155c-.245.199-24.928 19.645-58.094 22.601a74.833 74.833 0 0 1-6.921.322c-8.299 0-10.902-1.654-10.856-1.485-.75-2.71 2.404-13.153 13.429-26.49 12.495-15.098 80.005-60.835 122.94-88.32l113.201 113.477zm-305.812 101.84-22.172 24.101c-1.179-1.194-2.343-2.358-3.338-3.369-1.164-1.179-1.546-2.174-1.485-3.92.245-7.671 8.559-19.523 16.874-28.695a1041.76 1041.76 0 0 0 10.121 11.883zm45.033 91.474c-3.231-3.246-6.768-6.768-10.535-10.55l21.743-23.642a773.364 773.364 0 0 0 11.254 9.922l-22.462 24.27zm-32.201-32.232c-4.548-4.548-9.034-9.065-13.368-13.398l21.146-22.999a514.232 514.232 0 0 0 8.911 9.187c1.439 1.455 2.925 2.863 4.379 4.303l-21.068 22.907zm57.451 50.04 20.748-22.417c4.486 3.629 8.758 6.997 12.801 10.167-14.67 10.611-26.031 12.648-33.549 12.25zm217.675-111.701c-2.036 7.273-8.667 8.713-13.367 8.774l-85.411-81.246-21.115 22.187 83.91 79.806c-1.991 8.712-8.024 12.066-13.551 13.26l-84.277-80.174-21.115 22.187 82.915 78.872c-3.047 7.212-9.034 11.055-13.781 13.015l-83.022-78.979-21.115 22.187 82.608 78.597c-.995 2.22-2.327 4.18-4.15 5.007-5.528 2.542-17.103-1.608-22.325-4.716-.551-.398-56.823-39.75-102.973-86.008-43.149-43.256-91.198-110.66-97.645-119.771L191.094 95.107c8.023 7.289 21.85 20.503 33.288 34.299-25.847 18.114-50.407 36.642-59.258 47.345-8.942 10.81-28.48 38.311-16.981 60.146 7.243 13.781 23.244 19.676 47.651 17.517 30.762-2.725 55.215-16.154 67.005-23.856 12.495 4.272 36.121 9.463 59.38-1.271l81.353 76.453c2.926 4.072 5.146 9.263 3.492 15.143z"/></svg>