<svg xmlns="http://www.w3.org/2000/svg" width="24" height="24" viewBox="0 0 24 24" fill="none"><path d="M5.55 17.625c1.05-.667 2.088-1.17 3.112-1.512C9.688 15.77 10.8 15.6 12 15.6c1.2 0 2.317.17 3.35.513 1.033.341 2.075.845 3.125 1.512.733-.9 1.254-1.808 1.563-2.725A9.036 9.036 0 0 0 20.5 12c0-2.417-.813-4.438-2.438-6.063C16.438 4.313 14.418 3.5 12 3.5c-2.417 0-4.438.813-6.063 2.438C4.313 7.563 3.5 9.582 3.5 12a8.81 8.81 0 0 0 .475 2.9c.317.917.842 1.825 1.575 2.725ZM12 12.75c-.967 0-1.78-.33-2.438-.988-.658-.658-.987-1.47-.987-2.437 0-.967.33-1.78.988-2.437.658-.659 1.47-.988 2.437-.988.967 0 1.78.33 2.438.987.658.659.987 1.471.987 2.438 0 .967-.33 1.78-.988 2.438-.658.658-1.47.987-2.437.987ZM12 22c-1.4 0-2.708-.262-3.925-.788a9.994 9.994 0 0 1-3.175-2.15 10.07 10.07 0 0 1-2.125-3.187 9.873 9.873 0 0 1-.775-3.9c0-1.367.263-2.658.788-3.875a9.994 9.994 0 0 1 2.15-3.175 10.25 10.25 0 0 1 3.187-2.137 9.738 9.738 0 0 1 3.9-.788c1.367 0 2.658.263 3.875.788a10.098 10.098 0 0 1 3.175 2.137c.9.9 1.613 1.958 2.137 3.175A9.738 9.738 0 0 1 22 12a9.676 9.676 0 0 1-.788 3.875 10.25 10.25 0 0 1-2.137 3.188 9.994 9.994 0 0 1-3.175 2.15A9.738 9.738 0 0 1 12 22Z" fill="#1D1D1B"/></svg>